<svg width="18" height="16" viewBox="0 0 18 16" fill="none" xmlns="http://www.w3.org/2000/svg">
<path fill-rule="evenodd" clip-rule="evenodd" d="M13.7109 0C16.3125 0 18 1.5 18 3.81251V12.1875C18 14.5 16.3125 16 13.7109 16H4.28907C1.6875 16 0 14.5 0 12.1875V3.81251C0 1.5 1.6875 0 4.28907 0H13.7109Z" fill="url(#paint0_linear_22_141)"/>
<path fill-rule="evenodd" clip-rule="evenodd" d="M10.1566 8.71839L14.7419 4.55526L3.262 4.53333L7.85073 8.71713C8.48623 9.29655 9.51889 9.29738 10.1566 8.71839ZM14.9624 4.78326V11.1018L11.4756 7.94145L14.9624 4.78326ZM3 4.79999V11.1185L6.48675 7.95818L3 4.79999ZM10.2376 9.06946L11.1804 8.21829L14.5522 11.3307H8.98227H3.41236L6.78027 8.21829L7.72693 9.06946C7.72693 9.06946 8.20456 9.48821 8.98227 9.4967C9.75997 9.48821 10.2376 9.06946 10.2376 9.06946Z" fill="white"/>
<defs>
<linearGradient id="paint0_linear_22_141" x1="0" y1="0" x2="0" y2="16" gradientUnits="userSpaceOnUse">
<stop stop-color="#1D62F0"/>
<stop offset="1" stop-color="#19D5FD"/>
</linearGradient>
</defs>
</svg>
