<svg width="18" height="16" viewBox="0 0 18 16" fill="none" xmlns="http://www.w3.org/2000/svg">
<path fill-rule="evenodd" clip-rule="evenodd" d="M13.7109 0C16.3125 0 18 1.5 18 3.81251V12.1875C18 14.5 16.3125 16 13.7109 16H4.28907C1.6875 16 0 14.5 0 12.1875V3.81251C0 1.5 1.6875 0 4.28907 0H13.7109Z" fill="url(#paint0_linear_22_149)"/>
<path fill-rule="evenodd" clip-rule="evenodd" d="M9.41579 15.9208V9.72368H7.15086V7.49513H9.41579V5.86102C9.41579 5.86102 9.25286 2.46436 12.5598 2.46436H15.2348V4.73492H13.5679C13.5679 4.73492 12.3412 4.67574 12.3279 5.80113V7.49513H15.0245L14.6356 9.72368H12.3012V16H9.41579V15.9208Z" fill="white"/>
<defs>
<linearGradient id="paint0_linear_22_149" x1="0" y1="0" x2="0" y2="16" gradientUnits="userSpaceOnUse">
<stop stop-color="#6387D3"/>
<stop offset="1" stop-color="#2D4A86"/>
</linearGradient>
</defs>
</svg>
