<svg width="19" height="18" viewBox="0 0 19 18" fill="none" xmlns="http://www.w3.org/2000/svg">
<path fill-rule="evenodd" clip-rule="evenodd" d="M13.9492 17C16.4062 17 18 15.5 18 13.1875V4.81251C18 2.5 16.4062 1 13.9492 1H5.05079C2.59375 1 1 2.5 1 4.81251V13.1875C1 15.5 2.59375 17 5.05079 17H13.9492Z" fill="white"/>
<path fill-rule="evenodd" clip-rule="evenodd" d="M13.9492 17C16.4062 17 18 15.5 18 13.1875V4.81251C18 2.5 16.4062 0.999999 13.9492 0.999999H5.05079C2.59375 0.999999 1 2.5 1 4.81251V13.1875C1 15.5 2.59375 17 5.05079 17H13.9492Z" stroke="#A4A4A4" stroke-width="0.5"/>
<path fill-rule="evenodd" clip-rule="evenodd" d="M8.22499 10.7333L11.7608 8.46107L12.1449 9.61354L8.22499 10.7333Z" fill="#E9E9E9"/>
<path fill-rule="evenodd" clip-rule="evenodd" d="M4.94387 13.1293C4.94387 13.1293 6.5199 13.2667 9.56085 13.2667C12.6018 13.2667 14.0449 13.1293 14.0449 13.1293C14.0449 13.1293 15.1509 13.0932 15.5833 12.3155C15.5833 12.3155 16.0155 11.7512 16.0155 9C16.0155 9 16.0416 7.29678 15.8368 6.39129C15.6319 5.48584 15.1796 5.22138 15.1796 5.22138C15.1796 5.22138 14.8893 4.95695 14.2492 4.88485C13.609 4.81272 11.5333 4.73333 9.56085 4.73333C9.56085 4.73333 5.94988 4.73526 4.73357 4.924C3.51726 5.11272 3.3464 6.17908 3.3464 6.17908C3.3464 6.17908 2.84825 8.8785 3.3464 11.8179C3.3464 11.8179 3.49059 12.992 4.94387 13.1293ZM11.7667 9.06666L8.225 7.4V10.7333L11.7667 9.06666Z" fill="url(#paint0_linear_22_123)"/>
<defs>
<linearGradient id="paint0_linear_22_123" x1="3.125" y1="13.2667" x2="3.125" y2="4.73333" gradientUnits="userSpaceOnUse">
<stop stop-color="#E72B22"/>
<stop offset="1" stop-color="#DD2A22"/>
</linearGradient>
</defs>
</svg>
