<svg width="18" height="16" viewBox="0 0 18 16" fill="none" xmlns="http://www.w3.org/2000/svg">
<path fill-rule="evenodd" clip-rule="evenodd" d="M13.7109 0C16.3125 0 18 1.5 18 3.81251V12.1875C18 14.5 16.3125 16 13.7109 16H4.28907C1.6875 16 0 14.5 0 12.1875V3.81251C0 1.5 1.6875 0 4.28907 0H13.7109Z" fill="#1DA1F2"/>
<path fill-rule="evenodd" clip-rule="evenodd" d="M4.00155 4.10953C4.00155 4.10953 6.0441 6.36633 9.1557 6.50207C9.1557 6.50207 8.5206 5.00527 10.4191 3.97927C10.4191 3.97927 11.9616 3.17393 13.4502 4.47793C13.4502 4.47793 14.1216 4.449 14.9309 3.92007C14.9309 3.92007 15.0499 4.40673 13.9947 5.18953C13.9947 5.18953 14.5818 5.14727 15.2482 4.75927C15.2482 4.75927 15.1213 5.42927 14.0343 5.91593C14.0343 5.91593 14.365 11.217 8.5452 12.3773C8.5452 12.3773 5.4675 12.9946 3.3 11.4831C3.3 11.4831 5.5992 11.6959 6.82065 10.557C6.82065 10.557 5.28795 10.6847 4.53345 9.0774C4.53345 9.0774 5.2998 9.19447 5.6112 8.971C5.6112 8.971 3.9945 8.98153 3.63525 6.8314C3.63525 6.8314 4.2939 7.1294 4.725 7.0762C4.725 7.0762 2.89485 6.0714 4.00155 4.10953Z" fill="white"/>
</svg>
